<svg width="48" height="48" viewBox="0 0 32 32" fill="none" xmlns="http://www.w3.org/2000/svg">
<path d="M10 25H12" stroke="white" stroke-width="2" stroke-miterlimit="10"/>
<path d="M13 24V22" stroke="white" stroke-width="2" stroke-miterlimit="10"/>
<path d="M9 24V22" stroke="white" stroke-width="2" stroke-miterlimit="10"/>
<path d="M7 22V20" stroke="white" stroke-width="2" stroke-miterlimit="10"/>
<path d="M6 19H4" stroke="white" stroke-width="2" stroke-miterlimit="10"/>
<path d="M10 21H8" stroke="white" stroke-width="2" stroke-miterlimit="10"/>
<path d="M8 19H6" stroke="white" stroke-width="2" stroke-miterlimit="10"/>
<path d="M12 23H10" stroke="white" stroke-width="2" stroke-miterlimit="10"/>
<path d="M14 21H12" stroke="white" stroke-width="2" stroke-miterlimit="10"/>
<path d="M16 19H14" stroke="white" stroke-width="2" stroke-miterlimit="10"/>
<path d="M18 17H16" stroke="white" stroke-width="2" stroke-miterlimit="10"/>
<path d="M20 15H18" stroke="white" stroke-width="2" stroke-miterlimit="10"/>
<path d="M22 13H20" stroke="white" stroke-width="2" stroke-miterlimit="10"/>
<path d="M24 11H22" stroke="white" stroke-width="2" stroke-miterlimit="10"/>
<path d="M26 9H24" stroke="white" stroke-width="2" stroke-miterlimit="10"/>
<path d="M20 17H18" stroke="white" stroke-width="2" stroke-miterlimit="10"/>
<path d="M15 22V20" stroke="white" stroke-width="2" stroke-miterlimit="10"/>
<path d="M17 20V18" stroke="white" stroke-width="2" stroke-miterlimit="10"/>
<path d="M25 12V10" stroke="white" stroke-width="2" stroke-miterlimit="10"/>
<path d="M27 10V8" stroke="white" stroke-width="2" stroke-miterlimit="10"/>
<path d="M24 13H22" stroke="white" stroke-width="2" stroke-miterlimit="10"/>
<path d="M21 16V14" stroke="white" stroke-width="2" stroke-miterlimit="10"/>
</svg>
