<svg width="48" height="48" viewBox="0 0 32 32" fill="none" xmlns="http://www.w3.org/2000/svg">
<path d="M8 9V7" stroke="white" stroke-width="2" stroke-miterlimit="10"/>
<path d="M6 27V25" stroke="white" stroke-width="2" stroke-miterlimit="10"/>
<path d="M6 7V5" stroke="white" stroke-width="2" stroke-miterlimit="10"/>
<path d="M13 20H11" stroke="white" stroke-width="2" stroke-miterlimit="10"/>
<path d="M11 22H9" stroke="white" stroke-width="2" stroke-miterlimit="10"/>
<path d="M20 21V19" stroke="white" stroke-width="2" stroke-miterlimit="10"/>
<path d="M18 13V11" stroke="white" stroke-width="2" stroke-miterlimit="10"/>
<path d="M8 7V5" stroke="white" stroke-width="2" stroke-miterlimit="10"/>
<path d="M10 9V7" stroke="white" stroke-width="2" stroke-miterlimit="10"/>
<path d="M12 11V9" stroke="white" stroke-width="2" stroke-miterlimit="10"/>
<path d="M14 13V11" stroke="white" stroke-width="2" stroke-miterlimit="10"/>
<path d="M20 11V9" stroke="white" stroke-width="2" stroke-miterlimit="10"/>
<path d="M22 9V7" stroke="white" stroke-width="2" stroke-miterlimit="10"/>
<path d="M24 7V5" stroke="white" stroke-width="2" stroke-miterlimit="10"/>
<path d="M12 23V21" stroke="white" stroke-width="2" stroke-miterlimit="10"/>
<path d="M10 25V23" stroke="white" stroke-width="2" stroke-miterlimit="10"/>
<path d="M8 27V25" stroke="white" stroke-width="2" stroke-miterlimit="10"/>
<path d="M20 23V21" stroke="white" stroke-width="2" stroke-miterlimit="10"/>
<path d="M18 15V13" stroke="white" stroke-width="2" stroke-miterlimit="10"/>
<path d="M14 21V19" stroke="white" stroke-width="2" stroke-miterlimit="10"/>
<path d="M18 21V19" stroke="white" stroke-width="2" stroke-miterlimit="10"/>
<path d="M22 25V23" stroke="white" stroke-width="2" stroke-miterlimit="10"/>
<path d="M16 15V13" stroke="white" stroke-width="2" stroke-miterlimit="10"/>
<path d="M14 15V13" stroke="white" stroke-width="2" stroke-miterlimit="10"/>
<path d="M14 19V17" stroke="white" stroke-width="2" stroke-miterlimit="10"/>
<path d="M18 19V17" stroke="white" stroke-width="2" stroke-miterlimit="10"/>
<path d="M16 17V15" stroke="white" stroke-width="2" stroke-miterlimit="10"/>
<path d="M16 19V17" stroke="white" stroke-width="2" stroke-miterlimit="10"/>
<path d="M14 19V17" stroke="white" stroke-width="2" stroke-miterlimit="10"/>
<path d="M24 27V25" stroke="white" stroke-width="2" stroke-miterlimit="10"/>
<path d="M24 25V23" stroke="white" stroke-width="2" stroke-miterlimit="10"/>
<path d="M10 11V9" stroke="white" stroke-width="2" stroke-miterlimit="10"/>
<path d="M24 9V7" stroke="white" stroke-width="2" stroke-miterlimit="10"/>
<path d="M8 25V23" stroke="white" stroke-width="2" stroke-miterlimit="10"/>
<path d="M12 13V11" stroke="white" stroke-width="2" stroke-miterlimit="10"/>
<path d="M23 10H21" stroke="white" stroke-width="2" stroke-miterlimit="10"/>
<path d="M20 13V11" stroke="white" stroke-width="2" stroke-miterlimit="10"/>
<path d="M26 7V5" stroke="white" stroke-width="2" stroke-miterlimit="10"/>
<path d="M22 23V21" stroke="white" stroke-width="2" stroke-miterlimit="10"/>
<path d="M26 27V25" stroke="white" stroke-width="2" stroke-miterlimit="10"/>
</svg>
