<svg width="118" height="118" viewBox="0 0 118 118" fill="none" xmlns="http://www.w3.org/2000/svg">
<g style="mix-blend-mode:hard-light">
<path d="M107.592 58.6863C107.592 85.6821 85.6821 107.592 58.6864 107.592C38.1706 107.592 20.6136 94.9741 13.3756 77.0747C13.1555 76.5857 12.9844 76.0966 12.7887 75.6076C12.6176 75.143 12.4464 74.6539 12.2997 74.1649C10.6614 69.2988 9.78107 64.0904 9.78107 58.6863C9.78107 58.2706 9.78107 57.8305 9.82997 57.4148C9.80552 56.9991 9.82997 56.559 9.85443 56.1433C11.1749 30.3212 32.522 9.78101 58.6864 9.78101C85.6821 9.78101 107.592 31.6661 107.592 58.6863Z" fill="#3B8526"/>
<path d="M69.6901 53.7958C74.4168 53.7958 78.2486 49.9641 78.2486 45.2374C78.2486 40.5107 74.4168 36.679 69.6901 36.679C64.9635 36.679 61.1317 40.5107 61.1317 45.2374C61.1317 49.9641 64.9635 53.7958 69.6901 53.7958Z" fill="white"/>
<path opacity="0.07" d="M69.6901 35.4563C64.286 35.4563 59.909 39.8333 59.909 45.2374C59.909 50.6414 64.286 55.0184 69.6901 55.0184C75.0941 55.0184 79.4711 50.6414 79.4711 45.2374C79.4711 39.8333 75.0941 35.4563 69.6901 35.4563ZM69.6901 53.7958C64.9707 53.7958 61.1316 49.9567 61.1316 45.2374C61.1316 40.518 64.9707 36.6789 69.6901 36.6789C74.4094 36.6789 78.2485 40.518 78.2485 45.2374C78.2485 49.9567 74.4094 53.7958 69.6901 53.7958Z" fill="black"/>
<path d="M69.6901 24.4526C58.2218 24.4526 48.9053 33.7691 48.9053 45.2374C48.9053 45.6775 48.9542 46.0932 48.9787 46.5089L41.5695 58.6864C36.5078 58.6864 31.9841 60.8871 28.8541 64.3594L9.78107 58.6864C9.78107 64.0904 10.6614 69.2988 12.2997 74.1649L24.6238 78.1018C25.7487 86.4646 32.8888 92.9201 41.5695 92.9201C51.0327 92.9201 58.6864 85.2664 58.6864 75.8032C58.6864 74.8985 58.5886 74.0182 58.4663 73.1623L70.8394 65.9732C81.7697 65.3619 90.4749 56.3144 90.4749 45.2374C90.4749 33.7691 81.1584 24.4526 69.6901 24.4526ZM41.5695 88.0295C36.2389 88.0295 31.7396 84.5817 30.0768 79.8379L39.2465 82.7478L39.271 82.7233C39.271 82.7478 39.2954 82.7478 39.3199 82.7478C39.6622 82.8456 39.9801 82.9434 40.3224 83.0167C40.7381 83.0901 41.1538 83.139 41.5695 83.139C45.6287 83.139 48.9053 79.8623 48.9053 75.8032C48.9053 72.6244 46.8269 69.9101 43.9659 68.9076C43.9414 68.8831 43.8925 68.8342 43.8925 68.8342L34.3315 65.9977C36.3611 64.5061 38.8553 63.5769 41.5695 63.5769C48.3185 63.5769 53.7959 69.0543 53.7959 75.8032C53.7959 82.5521 48.3185 88.0295 41.5695 88.0295ZM69.6901 58.6864C62.2565 58.6864 56.2411 52.671 56.2411 45.2374C56.2411 37.8038 62.2565 31.7884 69.6901 31.7884C77.1237 31.7884 83.1391 37.8038 83.1391 45.2374C83.1391 52.671 77.1237 58.6864 69.6901 58.6864Z" fill="white"/>
<path opacity="0.05" d="M81.6719 42.7677C81.5007 41.9852 81.2562 41.2271 80.9627 40.4936C80.816 40.1268 80.6204 39.76 80.4492 39.4176C79.3 37.3392 77.5883 35.6275 75.5098 34.4782C75.1675 34.307 74.8007 34.1114 74.4339 33.9647C73.7003 33.6713 72.9423 33.4267 72.1598 33.2556C71.3528 33.1088 70.5215 33.011 69.6901 33.011C68.8587 33.011 68.0273 33.1088 67.2203 33.2556C66.4379 33.4267 65.6798 33.6713 64.9462 33.9647C64.5795 34.1114 64.2127 34.307 63.8703 34.4782C61.7919 35.6275 60.0802 37.3392 58.9309 39.4176C58.7597 39.76 58.5641 40.1268 58.4174 40.4936C58.124 41.2271 57.8794 41.9852 57.7083 42.7677C57.5615 43.5746 57.4637 44.406 57.4637 45.2374C57.4637 46.0688 57.5615 46.9002 57.7083 47.7071C57.8794 48.4896 58.124 49.2476 58.4174 49.9812C58.5641 50.348 58.7597 50.7148 58.9309 51.0571C60.0802 53.1356 61.7919 54.8473 63.8703 55.9966C64.2127 56.1677 64.5795 56.3633 64.9462 56.5101C65.6798 56.8035 66.4379 57.048 67.2203 57.2192C68.0273 57.3659 68.8587 57.4637 69.6901 57.4637C70.5215 57.4637 71.3528 57.3659 72.1598 57.2192C72.9423 57.048 73.7003 56.8035 74.4339 56.5101C74.8007 56.3633 75.1675 56.1677 75.5098 55.9966C77.5883 54.8473 79.3 53.1356 80.4492 51.0571C80.6204 50.7148 80.816 50.348 80.9627 49.9812C81.2562 49.2476 81.5007 48.4896 81.6719 47.7071C81.8186 46.9002 81.9164 46.0688 81.9164 45.2374C81.9164 44.406 81.8186 43.5746 81.6719 42.7677ZM69.6901 55.0184C64.286 55.0184 59.909 50.6414 59.909 45.2374C59.909 39.8333 64.286 35.4563 69.6901 35.4563C75.0941 35.4563 79.4711 39.8333 79.4711 45.2374C79.4711 50.6414 75.0941 55.0184 69.6901 55.0184ZM41.5695 64.7995C40.1268 64.7995 38.733 65.0929 37.4126 65.6309L44.2348 67.6605L44.5283 67.8072L44.5527 67.8316C47.9027 69.0787 50.1279 72.2576 50.1279 75.8032C50.1279 80.5226 46.2889 84.3617 41.5695 84.3617C41.1049 84.3617 40.6159 84.3128 40.1268 84.2149H40.0534L40.029 84.2883L38.8797 83.9215L32.4487 81.8675C34.4538 84.8996 37.8527 86.8069 41.5695 86.8069C47.6338 86.8069 52.5732 81.8675 52.5732 75.8032C52.5732 69.739 47.6338 64.7995 41.5695 64.7995ZM41.5695 64.7995C40.1268 64.7995 38.733 65.0929 37.4126 65.6309L44.2348 67.6605L44.5283 67.8072L44.5527 67.8316C47.9027 69.0787 50.1279 72.2576 50.1279 75.8032C50.1279 80.5226 46.2889 84.3617 41.5695 84.3617C41.1049 84.3617 40.6159 84.3128 40.1268 84.2149H40.0534L40.029 84.2883L38.8797 83.9215L32.4487 81.8675C34.4538 84.8996 37.8527 86.8069 41.5695 86.8069C47.6338 86.8069 52.5732 81.8675 52.5732 75.8032C52.5732 69.739 47.6338 64.7995 41.5695 64.7995ZM69.6901 22.0073C56.8769 22.0073 46.46 32.4242 46.46 45.2374C46.46 45.4574 46.46 45.6775 46.4845 45.8976L40.1757 56.29C35.6764 56.6079 31.4217 58.4907 28.145 61.5962L10.4902 56.3389L9.85441 56.1433C9.82995 56.559 9.8055 56.9991 9.82995 57.4148L10.1234 57.5126L28.4873 62.99C31.764 59.64 36.2144 57.6593 40.8848 57.4882L47.7316 46.2155C47.7071 45.8976 47.6827 45.5553 47.6827 45.2374C47.6827 33.1088 57.5615 23.23 69.6901 23.23C81.8186 23.23 91.6975 33.1088 91.6975 45.2374C91.6975 56.8035 82.7233 66.3645 71.2061 67.1714L59.7867 73.8226C59.8601 74.5072 59.909 75.1675 59.909 75.8032C59.909 85.9266 51.6929 94.1427 41.5695 94.1427C32.6932 94.1427 25.064 87.6872 23.5234 79.031L12.7887 75.6076C12.9843 76.0967 13.1555 76.5857 13.3756 77.0748L22.472 79.9846C24.4037 88.861 32.3509 95.3654 41.5695 95.3654C52.3531 95.3654 61.1316 86.5869 61.1316 75.8032C61.1316 75.3631 61.1072 74.9229 61.0827 74.4828L71.5729 68.3696C83.6036 67.3915 92.9201 57.3414 92.9201 45.2374C92.9201 32.4242 82.5033 22.0073 69.6901 22.0073ZM41.5695 84.3617C41.1049 84.3617 40.6159 84.3128 40.1268 84.2149H40.0534L40.029 84.2883L38.8797 83.9215L32.4487 81.8675C34.4538 84.8996 37.8527 86.8069 41.5695 86.8069C47.6338 86.8069 52.5732 81.8675 52.5732 75.8032C52.5732 69.739 47.6338 64.7995 41.5695 64.7995C40.1268 64.7995 38.733 65.0929 37.4126 65.6309L44.2348 67.6605L44.5283 67.8072L44.5527 67.8316C47.9027 69.0787 50.1279 72.2576 50.1279 75.8032C50.1279 80.5226 46.2889 84.3617 41.5695 84.3617ZM41.5695 64.7995C40.1268 64.7995 38.733 65.0929 37.4126 65.6309L44.2348 67.6605L44.5283 67.8072L44.5527 67.8316C47.9027 69.0787 50.1279 72.2576 50.1279 75.8032C50.1279 80.5226 46.2889 84.3617 41.5695 84.3617C41.1049 84.3617 40.6159 84.3128 40.1268 84.2149H40.0534L40.029 84.2883L38.8797 83.9215L32.4487 81.8675C34.4538 84.8996 37.8527 86.8069 41.5695 86.8069C47.6338 86.8069 52.5732 81.8675 52.5732 75.8032C52.5732 69.739 47.6338 64.7995 41.5695 64.7995ZM41.5695 64.7995C40.1268 64.7995 38.733 65.0929 37.4126 65.6309L44.2348 67.6605L44.5283 67.8072L44.5527 67.8316C47.9027 69.0787 50.1279 72.2576 50.1279 75.8032C50.1279 80.5226 46.2889 84.3617 41.5695 84.3617C41.1049 84.3617 40.6159 84.3128 40.1268 84.2149H40.0534L40.029 84.2883L38.8797 83.9215L32.4487 81.8675C34.4538 84.8996 37.8527 86.8069 41.5695 86.8069C47.6338 86.8069 52.5732 81.8675 52.5732 75.8032C52.5732 69.739 47.6338 64.7995 41.5695 64.7995ZM41.5695 64.7995C40.1268 64.7995 38.733 65.0929 37.4126 65.6309L44.2348 67.6605L44.5283 67.8072L44.5527 67.8316C47.9027 69.0787 50.1279 72.2576 50.1279 75.8032C50.1279 80.5226 46.2889 84.3617 41.5695 84.3617C41.1049 84.3617 40.6159 84.3128 40.1268 84.2149H40.0534L40.029 84.2883L38.8797 83.9215L32.4487 81.8675C34.4538 84.8996 37.8527 86.8069 41.5695 86.8069C47.6338 86.8069 52.5732 81.8675 52.5732 75.8032C52.5732 69.739 47.6338 64.7995 41.5695 64.7995ZM41.5695 64.7995C40.1268 64.7995 38.733 65.0929 37.4126 65.6309L44.2348 67.6605L44.5283 67.8072L44.5527 67.8316C47.9027 69.0787 50.1279 72.2576 50.1279 75.8032C50.1279 80.5226 46.2889 84.3617 41.5695 84.3617C41.1049 84.3617 40.6159 84.3128 40.1268 84.2149H40.0534L40.029 84.2883L38.8797 83.9215L32.4487 81.8675C34.4538 84.8996 37.8527 86.8069 41.5695 86.8069C47.6338 86.8069 52.5732 81.8675 52.5732 75.8032C52.5732 69.739 47.6338 64.7995 41.5695 64.7995Z" fill="black"/>
<path opacity="0.07" d="M69.6901 23.23C57.5616 23.23 47.6827 33.1089 47.6827 45.2374C47.6827 45.5553 47.7071 45.8976 47.7316 46.2155L40.8848 57.4882C36.2144 57.6594 31.764 59.64 28.4873 62.99L10.1234 57.5126L9.82997 57.4148C9.78107 57.8305 9.78107 58.2707 9.78107 58.6864L28.8541 64.3594C31.9841 60.8871 36.5078 58.6864 41.5695 58.6864L48.9787 46.5089C48.9542 46.0932 48.9053 45.6775 48.9053 45.2374C48.9053 33.7691 58.2218 24.4526 69.6901 24.4526C81.1584 24.4526 90.4748 33.7691 90.4748 45.2374C90.4748 56.3145 81.7697 65.362 70.8394 65.9733L58.4663 73.1624C58.5886 74.0182 58.6864 74.8985 58.6864 75.8033C58.6864 85.2664 51.0327 92.9201 41.5695 92.9201C32.8888 92.9201 25.7487 86.4646 24.6238 78.1018L12.2997 74.1649C12.4464 74.654 12.6176 75.143 12.7887 75.6076L23.5235 79.031C25.064 87.6873 32.6932 94.1428 41.5695 94.1428C51.6929 94.1428 59.909 85.9267 59.909 75.8033C59.909 75.1675 59.8601 74.5073 59.7868 73.8226L71.2061 67.1715C82.7233 66.3645 91.6975 56.8035 91.6975 45.2374C91.6975 33.1089 81.8186 23.23 69.6901 23.23ZM69.6901 58.6864C77.1237 58.6864 83.139 52.671 83.139 45.2374C83.139 37.8038 77.1237 31.7884 69.6901 31.7884C62.2565 31.7884 56.2411 37.8038 56.2411 45.2374C56.2411 52.671 62.2565 58.6864 69.6901 58.6864ZM58.4174 49.9812C58.0995 49.2476 57.8794 48.4896 57.7083 47.7071C57.5616 46.9002 57.4637 46.0688 57.4637 45.2374C57.4637 44.406 57.5616 43.5746 57.7083 42.7677C57.8794 41.9852 58.0995 41.2272 58.4174 40.4936C58.5641 40.1268 58.7597 39.76 58.9309 39.4177C60.0802 37.3392 61.7919 35.6275 63.8703 34.4782C64.2127 34.307 64.5795 34.1114 64.9463 33.9647C65.6798 33.6468 66.4379 33.4268 67.2204 33.2556C68.0273 33.1089 68.8587 33.0111 69.6901 33.0111C70.5215 33.0111 71.3529 33.1089 72.1598 33.2556C72.9423 33.4268 73.7003 33.6468 74.4339 33.9647C74.8007 34.1114 75.1675 34.307 75.5098 34.4782C77.5883 35.6275 79.3 37.3392 80.4493 39.4177C80.6204 39.76 80.816 40.1268 80.9628 40.4936C81.2806 41.2272 81.5007 41.9852 81.6719 42.7677C81.8186 43.5746 81.9164 44.406 81.9164 45.2374C81.9164 46.0688 81.8186 46.9002 81.6719 47.7071C81.5007 48.4896 81.2806 49.2476 80.9628 49.9812C80.816 50.348 80.6204 50.7148 80.4493 51.0571C79.3 53.1356 77.5883 54.8473 75.5098 55.9966C75.1675 56.1677 74.8007 56.3634 74.4339 56.5101C73.7003 56.828 72.9423 57.048 72.1598 57.2192C71.3529 57.3659 70.5215 57.4637 69.6901 57.4637C68.8587 57.4637 68.0273 57.3659 67.2204 57.2192C66.4379 57.048 65.6798 56.828 64.9463 56.5101C64.5795 56.3634 64.2127 56.1677 63.8703 55.9966C61.7919 54.8473 60.0802 53.1356 58.9309 51.0571C58.7597 50.7148 58.5641 50.348 58.4174 49.9812ZM41.5695 83.1391C41.1538 83.1391 40.7381 83.0902 40.3224 83.0168C39.9801 82.9434 39.6622 82.8456 39.3199 82.7478C39.2954 82.7478 39.271 82.7478 39.271 82.7234L39.2465 82.7478L30.0768 79.8379C31.7396 84.5818 36.2388 88.0296 41.5695 88.0296C48.3185 88.0296 53.7959 82.5522 53.7959 75.8033C53.7959 69.0543 48.3185 63.5769 41.5695 63.5769C38.8553 63.5769 36.3611 64.5061 34.3315 65.9977L43.8925 68.8342C43.8925 68.8342 43.9414 68.8831 43.9659 68.9076C46.8268 69.9102 48.9053 72.6244 48.9053 75.8033C48.9053 79.8624 45.6287 83.1391 41.5695 83.1391ZM50.128 75.8033C50.128 72.2576 47.9028 69.0788 44.5527 67.8317L44.5283 67.8072L44.2349 67.6605L37.4126 65.6309C38.733 65.093 40.1268 64.7995 41.5695 64.7995C47.6338 64.7995 52.5732 69.739 52.5732 75.8033C52.5732 81.8675 47.6338 86.807 41.5695 86.807C37.8527 86.807 34.4538 84.8996 32.4487 81.8675L38.8797 83.9215L40.029 84.2883L40.0535 84.215H40.1268C40.6159 84.3128 41.1049 84.3617 41.5695 84.3617C46.2889 84.3617 50.128 80.5226 50.128 75.8033ZM41.5695 63.5769C38.8553 63.5769 36.3611 64.5061 34.3315 65.9977L43.8925 68.8342C43.8925 68.8342 43.9414 68.8831 43.9659 68.9076C46.8268 69.9102 48.9053 72.6244 48.9053 75.8033C48.9053 79.8624 45.6287 83.1391 41.5695 83.1391C41.1538 83.1391 40.7381 83.0902 40.3224 83.0168C39.9801 82.9434 39.6622 82.8456 39.3199 82.7478C39.2954 82.7478 39.271 82.7478 39.271 82.7234L39.2465 82.7478L30.0768 79.8379C31.7396 84.5818 36.2388 88.0296 41.5695 88.0296C48.3185 88.0296 53.7959 82.5522 53.7959 75.8033C53.7959 69.0543 48.3185 63.5769 41.5695 63.5769ZM41.5695 86.807C37.8527 86.807 34.4538 84.8996 32.4487 81.8675L38.8797 83.9215L40.029 84.2883L40.0535 84.215H40.1268C40.6159 84.3128 41.1049 84.3617 41.5695 84.3617C46.2889 84.3617 50.128 80.5226 50.128 75.8033C50.128 72.2576 47.9028 69.0788 44.5527 67.8317L44.5283 67.8072L44.2349 67.6605L37.4126 65.6309C38.733 65.093 40.1268 64.7995 41.5695 64.7995C47.6338 64.7995 52.5732 69.739 52.5732 75.8033C52.5732 81.8675 47.6338 86.807 41.5695 86.807ZM69.6901 31.7884C62.2565 31.7884 56.2411 37.8038 56.2411 45.2374C56.2411 52.671 62.2565 58.6864 69.6901 58.6864C77.1237 58.6864 83.139 52.671 83.139 45.2374C83.139 37.8038 77.1237 31.7884 69.6901 31.7884ZM80.9628 49.9812C80.816 50.348 80.6204 50.7148 80.4493 51.0571C79.3 53.1356 77.5883 54.8473 75.5098 55.9966C75.1675 56.1677 74.8007 56.3634 74.4339 56.5101C73.7003 56.828 72.9423 57.048 72.1598 57.2192C71.3529 57.3659 70.5215 57.4637 69.6901 57.4637C68.8587 57.4637 68.0273 57.3659 67.2204 57.2192C66.4379 57.048 65.6798 56.828 64.9463 56.5101C64.5795 56.3634 64.2127 56.1677 63.8703 55.9966C61.7919 54.8473 60.0802 53.1356 58.9309 51.0571C58.7597 50.7148 58.5641 50.348 58.4174 49.9812C58.0995 49.2476 57.8794 48.4896 57.7083 47.7071C57.5616 46.9002 57.4637 46.0688 57.4637 45.2374C57.4637 44.406 57.5616 43.5746 57.7083 42.7677C57.8794 41.9852 58.0995 41.2272 58.4174 40.4936C58.5641 40.1268 58.7597 39.76 58.9309 39.4177C60.0802 37.3392 61.7919 35.6275 63.8703 34.4782C64.2127 34.307 64.5795 34.1114 64.9463 33.9647C65.6798 33.6468 66.4379 33.4268 67.2204 33.2556C68.0273 33.1089 68.8587 33.0111 69.6901 33.0111C70.5215 33.0111 71.3529 33.1089 72.1598 33.2556C72.9423 33.4268 73.7003 33.6468 74.4339 33.9647C74.8007 34.1114 75.1675 34.307 75.5098 34.4782C77.5883 35.6275 79.3 37.3392 80.4493 39.4177C80.6204 39.76 80.816 40.1268 80.9628 40.4936C81.2806 41.2272 81.5007 41.9852 81.6719 42.7677C81.8186 43.5746 81.9164 44.406 81.9164 45.2374C81.9164 46.0688 81.8186 46.9002 81.6719 47.7071C81.5007 48.4896 81.2806 49.2476 80.9628 49.9812ZM69.6901 31.7884C62.2565 31.7884 56.2411 37.8038 56.2411 45.2374C56.2411 52.671 62.2565 58.6864 69.6901 58.6864C77.1237 58.6864 83.139 52.671 83.139 45.2374C83.139 37.8038 77.1237 31.7884 69.6901 31.7884ZM80.9628 49.9812C80.816 50.348 80.6204 50.7148 80.4493 51.0571C79.3 53.1356 77.5883 54.8473 75.5098 55.9966C75.1675 56.1677 74.8007 56.3634 74.4339 56.5101C73.7003 56.828 72.9423 57.048 72.1598 57.2192C71.3529 57.3659 70.5215 57.4637 69.6901 57.4637C68.8587 57.4637 68.0273 57.3659 67.2204 57.2192C66.4379 57.048 65.6798 56.828 64.9463 56.5101C64.5795 56.3634 64.2127 56.1677 63.8703 55.9966C61.7919 54.8473 60.0802 53.1356 58.9309 51.0571C58.7597 50.7148 58.5641 50.348 58.4174 49.9812C58.0995 49.2476 57.8794 48.4896 57.7083 47.7071C57.5616 46.9002 57.4637 46.0688 57.4637 45.2374C57.4637 44.406 57.5616 43.5746 57.7083 42.7677C57.8794 41.9852 58.0995 41.2272 58.4174 40.4936C58.5641 40.1268 58.7597 39.76 58.9309 39.4177C60.0802 37.3392 61.7919 35.6275 63.8703 34.4782C64.2127 34.307 64.5795 34.1114 64.9463 33.9647C65.6798 33.6468 66.4379 33.4268 67.2204 33.2556C68.0273 33.1089 68.8587 33.0111 69.6901 33.0111C70.5215 33.0111 71.3529 33.1089 72.1598 33.2556C72.9423 33.4268 73.7003 33.6468 74.4339 33.9647C74.8007 34.1114 75.1675 34.307 75.5098 34.4782C77.5883 35.6275 79.3 37.3392 80.4493 39.4177C80.6204 39.76 80.816 40.1268 80.9628 40.4936C81.2806 41.2272 81.5007 41.9852 81.6719 42.7677C81.8186 43.5746 81.9164 44.406 81.9164 45.2374C81.9164 46.0688 81.8186 46.9002 81.6719 47.7071C81.5007 48.4896 81.2806 49.2476 80.9628 49.9812ZM41.5695 63.5769C38.8553 63.5769 36.3611 64.5061 34.3315 65.9977L43.8925 68.8342C43.8925 68.8342 43.9414 68.8831 43.9659 68.9076C46.8268 69.9102 48.9053 72.6244 48.9053 75.8033C48.9053 79.8624 45.6287 83.1391 41.5695 83.1391C41.1538 83.1391 40.7381 83.0902 40.3224 83.0168C39.9801 82.9434 39.6622 82.8456 39.3199 82.7478C39.2954 82.7478 39.271 82.7478 39.271 82.7234L39.2465 82.7478L30.0768 79.8379C31.7396 84.5818 36.2388 88.0296 41.5695 88.0296C48.3185 88.0296 53.7959 82.5522 53.7959 75.8033C53.7959 69.0543 48.3185 63.5769 41.5695 63.5769ZM41.5695 86.807C37.8527 86.807 34.4538 84.8996 32.4487 81.8675L38.8797 83.9215L40.029 84.2883L40.0535 84.215H40.1268C40.6159 84.3128 41.1049 84.3617 41.5695 84.3617C46.2889 84.3617 50.128 80.5226 50.128 75.8033C50.128 72.2576 47.9028 69.0788 44.5527 67.8317L44.5283 67.8072L44.2349 67.6605L37.4126 65.6309C38.733 65.093 40.1268 64.7995 41.5695 64.7995C47.6338 64.7995 52.5732 69.739 52.5732 75.8033C52.5732 81.8675 47.6338 86.807 41.5695 86.807Z" fill="black"/>
<path opacity="0.07" d="M69.6901 31.7886C62.2565 31.7886 56.2411 37.8039 56.2411 45.2376C56.2411 52.6712 62.2565 58.6865 69.6901 58.6865C77.1237 58.6865 83.1391 52.6712 83.1391 45.2376C83.1391 37.8039 77.1237 31.7886 69.6901 31.7886ZM80.9628 49.9814C80.8161 50.3482 80.6205 50.715 80.4493 51.0573C79.3 53.1358 77.5883 54.8475 75.5099 55.9967C75.1675 56.1679 74.8007 56.3635 74.4339 56.5102C73.7004 56.8281 72.9423 57.0482 72.1598 57.2194C71.3529 57.3661 70.5215 57.4639 69.6901 57.4639C68.8587 57.4639 68.0273 57.3661 67.2204 57.2194C66.4379 57.0482 65.6799 56.8281 64.9463 56.5102C64.5795 56.3635 64.2127 56.1679 63.8704 55.9967C61.7919 54.8475 60.0802 53.1358 58.9309 51.0573C58.7598 50.715 58.5642 50.3482 58.4174 49.9814C58.0996 49.2478 57.8795 48.4898 57.7083 47.7073C57.5616 46.9003 57.4638 46.0689 57.4638 45.2376C57.4638 44.4062 57.5616 43.5748 57.7083 42.7678C57.8795 41.9853 58.0996 41.2273 58.4174 40.4937C58.5642 40.1269 58.7598 39.7602 58.9309 39.4178C60.0802 37.3393 61.7919 35.6276 63.8704 34.4784C64.2127 34.3072 64.5795 34.1116 64.9463 33.9649C65.6799 33.647 66.4379 33.4269 67.2204 33.2557C68.0273 33.109 68.8587 33.0112 69.6901 33.0112C70.5215 33.0112 71.3529 33.109 72.1598 33.2557C72.9423 33.4269 73.7004 33.647 74.4339 33.9649C74.8007 34.1116 75.1675 34.3072 75.5099 34.4784C77.5883 35.6276 79.3 37.3393 80.4493 39.4178C80.6205 39.7602 80.8161 40.1269 80.9628 40.4937C81.2807 41.2273 81.5008 41.9853 81.6719 42.7678C81.8186 43.5748 81.9165 44.4062 81.9165 45.2376C81.9165 46.0689 81.8186 46.9003 81.6719 47.7073C81.5008 48.4898 81.2807 49.2478 80.9628 49.9814ZM69.6901 31.7886C62.2565 31.7886 56.2411 37.8039 56.2411 45.2376C56.2411 52.6712 62.2565 58.6865 69.6901 58.6865C77.1237 58.6865 83.1391 52.6712 83.1391 45.2376C83.1391 37.8039 77.1237 31.7886 69.6901 31.7886ZM80.9628 49.9814C80.8161 50.3482 80.6205 50.715 80.4493 51.0573C79.3 53.1358 77.5883 54.8475 75.5099 55.9967C75.1675 56.1679 74.8007 56.3635 74.4339 56.5102C73.7004 56.8281 72.9423 57.0482 72.1598 57.2194C71.3529 57.3661 70.5215 57.4639 69.6901 57.4639C68.8587 57.4639 68.0273 57.3661 67.2204 57.2194C66.4379 57.0482 65.6799 56.8281 64.9463 56.5102C64.5795 56.3635 64.2127 56.1679 63.8704 55.9967C61.7919 54.8475 60.0802 53.1358 58.9309 51.0573C58.7598 50.715 58.5642 50.3482 58.4174 49.9814C58.0996 49.2478 57.8795 48.4898 57.7083 47.7073C57.5616 46.9003 57.4638 46.0689 57.4638 45.2376C57.4638 44.4062 57.5616 43.5748 57.7083 42.7678C57.8795 41.9853 58.0996 41.2273 58.4174 40.4937C58.5642 40.1269 58.7598 39.7602 58.9309 39.4178C60.0802 37.3393 61.7919 35.6276 63.8704 34.4784C64.2127 34.3072 64.5795 34.1116 64.9463 33.9649C65.6799 33.647 66.4379 33.4269 67.2204 33.2557C68.0273 33.109 68.8587 33.0112 69.6901 33.0112C70.5215 33.0112 71.3529 33.109 72.1598 33.2557C72.9423 33.4269 73.7004 33.647 74.4339 33.9649C74.8007 34.1116 75.1675 34.3072 75.5099 34.4784C77.5883 35.6276 79.3 37.3393 80.4493 39.4178C80.6205 39.7602 80.8161 40.1269 80.9628 40.4937C81.2807 41.2273 81.5008 41.9853 81.6719 42.7678C81.8186 43.5748 81.9165 44.4062 81.9165 45.2376C81.9165 46.0689 81.8186 46.9003 81.6719 47.7073C81.5008 48.4898 81.2807 49.2478 80.9628 49.9814ZM69.6901 31.7886C62.2565 31.7886 56.2411 37.8039 56.2411 45.2376C56.2411 52.6712 62.2565 58.6865 69.6901 58.6865C77.1237 58.6865 83.1391 52.6712 83.1391 45.2376C83.1391 37.8039 77.1237 31.7886 69.6901 31.7886ZM80.9628 49.9814C80.8161 50.3482 80.6205 50.715 80.4493 51.0573C79.3 53.1358 77.5883 54.8475 75.5099 55.9967C75.1675 56.1679 74.8007 56.3635 74.4339 56.5102C73.7004 56.8281 72.9423 57.0482 72.1598 57.2194C71.3529 57.3661 70.5215 57.4639 69.6901 57.4639C68.8587 57.4639 68.0273 57.3661 67.2204 57.2194C66.4379 57.0482 65.6799 56.8281 64.9463 56.5102C64.5795 56.3635 64.2127 56.1679 63.8704 55.9967C61.7919 54.8475 60.0802 53.1358 58.9309 51.0573C58.7598 50.715 58.5642 50.3482 58.4174 49.9814C58.0996 49.2478 57.8795 48.4898 57.7083 47.7073C57.5616 46.9003 57.4638 46.0689 57.4638 45.2376C57.4638 44.4062 57.5616 43.5748 57.7083 42.7678C57.8795 41.9853 58.0996 41.2273 58.4174 40.4937C58.5642 40.1269 58.7598 39.7602 58.9309 39.4178C60.0802 37.3393 61.7919 35.6276 63.8704 34.4784C64.2127 34.3072 64.5795 34.1116 64.9463 33.9649C65.6799 33.647 66.4379 33.4269 67.2204 33.2557C68.0273 33.109 68.8587 33.0112 69.6901 33.0112C70.5215 33.0112 71.3529 33.109 72.1598 33.2557C72.9423 33.4269 73.7004 33.647 74.4339 33.9649C74.8007 34.1116 75.1675 34.3072 75.5099 34.4784C77.5883 35.6276 79.3 37.3393 80.4493 39.4178C80.6205 39.7602 80.8161 40.1269 80.9628 40.4937C81.2807 41.2273 81.5008 41.9853 81.6719 42.7678C81.8186 43.5748 81.9165 44.4062 81.9165 45.2376C81.9165 46.0689 81.8186 46.9003 81.6719 47.7073C81.5008 48.4898 81.2807 49.2478 80.9628 49.9814Z" fill="black"/>
</g>
</svg>
