<svg width="118" height="118" viewBox="0 0 118 118" fill="none" xmlns="http://www.w3.org/2000/svg">
<g style="mix-blend-mode:hard-light">
<path d="M105.636 82.8945C104.658 88.0296 100.501 91.942 95.3655 92.6756C87.2961 93.8982 73.8471 95.3654 58.6865 95.3654C43.7703 95.3654 30.3214 93.8982 22.0075 92.6756C16.8724 91.942 12.7154 88.0296 11.7373 82.8945C10.7592 77.2704 9.78113 68.9565 9.78113 58.6863C9.78113 48.4162 10.7592 40.1023 11.7373 34.4782C12.7154 29.3431 16.8724 25.4307 22.0075 24.6971C30.0768 23.4745 43.5258 22.0073 58.6865 22.0073C73.8471 22.0073 87.0516 23.4745 95.3655 24.6971C100.501 25.4307 104.658 29.3431 105.636 34.4782C106.614 40.1023 107.836 48.4162 107.836 58.6863C107.592 68.9565 106.614 77.2704 105.636 82.8945Z" fill="#3B8526"/>
<path d="M48.9053 75.8033V41.5696L78.2485 58.6864L48.9053 75.8033Z" fill="white"/>
</g>
</svg>
