<svg width="1882" height="191" viewBox="0 0 1882 191" fill="none" xmlns="http://www.w3.org/2000/svg">
<path d="M50 10L61.2257 44.5491H97.5528L68.1636 65.9017L79.3893 100.451L50 79.0983L20.6107 100.451L31.8364 65.9017L2.44717 44.5491H38.7743L50 10Z" fill="white"/>
<path d="M1832 10L1843.23 44.5491H1879.55L1850.16 65.9017L1861.39 100.451L1832 79.0983L1802.61 100.451L1813.84 65.9017L1784.45 44.5491H1820.77L1832 10Z" fill="white"/>
<path d="M1625.64 68.6447L1658.01 85.1368L1683.7 59.4497L1678.02 95.3296L1710.38 111.822L1674.5 117.505L1668.82 153.384L1652.33 121.017L1616.45 126.7L1642.14 101.012L1625.64 68.6447Z" fill="white"/>
<path d="M395.066 84.3553L378.574 116.723L404.261 142.41L368.381 136.727L351.889 169.095L346.206 133.215L310.326 127.532L342.694 111.04L337.011 75.1604L362.698 100.848L395.066 84.3553Z" fill="white"/>
<path d="M646.066 -21.6447L629.574 10.723L655.261 36.4102L619.381 30.7274L602.889 63.0951L597.206 27.2152L561.326 21.5324L593.694 5.04023L588.011 -30.8396L613.698 -5.15249L646.066 -21.6447Z" fill="white"/>
<path d="M1260.41 34.7107L1295.94 42.2635L1314.11 10.8033L1317.9 46.9314L1353.44 54.4843L1320.25 69.2598L1324.05 105.388L1299.74 78.3916L1266.55 93.1672L1284.72 61.707L1260.41 34.7107Z" fill="white"/>
<path d="M1525 -16.6987L1560.53 -9.1459L1578.7 -40.6061L1582.49 -4.47799L1618.03 3.07484L1584.84 17.8504L1588.64 53.9785L1564.33 26.9822L1531.14 41.7578L1549.31 10.2976L1525 -16.6987Z" fill="white"/>
</svg>
