<svg width="300" height="110" viewBox="0 0 300 110" fill="none" xmlns="http://www.w3.org/2000/svg">
<path d="M53.145 3.00834C53.9144 1.67278 55.8417 1.67278 56.6111 3.00833L100.677 79.5017C101.445 80.835 100.482 82.5 98.9436 82.5H10.8125C9.27378 82.5 8.31142 80.835 9.07952 79.5017L53.145 3.00834Z" fill="white"/>
<path d="M132.736 73.088C131.877 73.088 131.243 72.7707 130.832 72.136L122.88 58.08C122.619 57.7067 122.376 57.3333 122.152 56.96C121.965 56.5867 121.779 56.1947 121.592 55.784L121.368 55.84C121.405 56.3253 121.424 56.8107 121.424 57.296C121.424 57.744 121.424 58.2107 121.424 58.696V81.488C121.424 82.5707 120.435 83.112 118.456 83.112H117.224C115.245 83.112 114.256 82.5707 114.256 81.488V45.312C114.256 44.2293 115.245 43.688 117.224 43.688H119.856C120.64 43.688 121.293 43.8 121.816 44.024C122.376 44.2107 122.768 44.5467 122.992 45.032L132.736 62.224C132.885 62.4853 133.035 62.784 133.184 63.12C133.371 63.4187 133.52 63.736 133.632 64.072C133.744 63.736 133.893 63.4 134.08 63.064C134.267 62.728 134.416 62.4293 134.528 62.168L144.272 45.032C144.533 44.5467 144.925 44.2107 145.448 44.024C146.008 43.8 146.661 43.688 147.408 43.688H149.984C151.963 43.688 152.952 44.2293 152.952 45.312V81.488C152.952 82.5707 151.963 83.112 149.984 83.112H148.752C146.773 83.112 145.784 82.5707 145.784 81.488V58.808C145.784 58.3227 145.784 57.856 145.784 57.408C145.821 56.9227 145.84 56.4373 145.84 55.952L145.616 55.896C145.429 56.3067 145.224 56.6987 145 57.072C144.813 57.4453 144.589 57.8187 144.328 58.192L136.432 72.136C136.021 72.7707 135.387 73.088 134.528 73.088H132.736ZM173.211 83.392C168.843 83.392 165.502 82.104 163.187 79.528C160.91 76.952 159.771 73.2373 159.771 68.384C159.771 63.4933 160.91 59.76 163.187 57.184C165.502 54.608 168.843 53.32 173.211 53.32C177.542 53.32 180.827 54.608 183.067 57.184C185.345 59.76 186.483 63.4933 186.483 68.384C186.483 73.2373 185.363 76.952 183.123 79.528C180.883 82.104 177.579 83.392 173.211 83.392ZM173.155 77.736C175.246 77.736 176.777 76.952 177.747 75.384C178.755 73.816 179.259 71.464 179.259 68.328C179.259 65.2293 178.755 62.896 177.747 61.328C176.777 59.76 175.246 58.976 173.155 58.976C171.027 58.976 169.459 59.76 168.451 61.328C167.481 62.8587 166.995 65.2107 166.995 68.384C166.995 71.4827 167.481 73.816 168.451 75.384C169.459 76.952 171.027 77.736 173.155 77.736ZM201.79 83.392C200.707 83.392 199.681 83.2427 198.71 82.944C197.777 82.6453 196.955 82.16 196.246 81.488C195.537 80.816 194.977 79.9387 194.566 78.856C194.155 77.736 193.95 76.392 193.95 74.824V59.368H192.438C191.43 59.368 190.926 58.5653 190.926 56.96V56.12C190.926 54.5147 191.43 53.712 192.438 53.712H193.95L194.678 48.224C194.827 47.1413 195.686 46.6 197.254 46.6H198.598C200.203 46.6 201.006 47.1413 201.006 48.224V53.712H204.422C205.43 53.712 205.934 54.5147 205.934 56.12V56.96C205.934 58.5653 205.43 59.368 204.422 59.368H201.006V74.712C201.006 75.832 201.211 76.616 201.622 77.064C202.033 77.512 202.611 77.736 203.358 77.736C203.843 77.736 204.217 77.6987 204.478 77.624C204.777 77.5493 205.019 77.512 205.206 77.512C205.542 77.512 205.822 77.7733 206.046 78.296C206.27 78.8187 206.438 79.3787 206.55 79.976C206.699 80.536 206.774 80.8907 206.774 81.04C206.774 81.7493 206.475 82.2907 205.878 82.664C205.281 83 204.59 83.2053 203.806 83.28C203.059 83.3547 202.387 83.392 201.79 83.392ZM215.387 83.112C213.408 83.112 212.419 82.5707 212.419 81.488V42.4C212.419 41.3547 213.408 40.832 215.387 40.832H216.507C218.485 40.832 219.475 41.3547 219.475 42.4V57.128C220.371 56.12 221.509 55.2427 222.891 54.496C224.309 53.712 225.877 53.32 227.595 53.32C228.827 53.32 229.965 53.488 231.011 53.824C232.056 54.1227 232.971 54.6267 233.755 55.336C234.539 56.0453 235.136 56.9787 235.547 58.136C235.995 59.2933 236.219 60.712 236.219 62.392V81.488C236.219 82.5707 235.229 83.112 233.251 83.112H232.131C230.152 83.112 229.163 82.5707 229.163 81.488V63.344C229.163 62.0747 228.808 61.0667 228.099 60.32C227.389 59.5733 226.307 59.2 224.851 59.2C224.104 59.2 223.413 59.3307 222.779 59.592C222.181 59.8533 221.659 60.1893 221.211 60.6C220.763 61.0107 220.389 61.4027 220.091 61.776C219.792 62.1493 219.587 62.448 219.475 62.672V81.488C219.475 82.5707 218.485 83.112 216.507 83.112H215.387ZM256.795 83.392C251.867 83.392 248.245 82.0853 245.931 79.472C243.616 76.8587 242.459 73.2187 242.459 68.552C242.459 64.968 243 62.056 244.083 59.816C245.203 57.576 246.771 55.9333 248.787 54.888C250.803 53.8427 253.173 53.32 255.899 53.32C258.736 53.32 261.013 53.9547 262.731 55.224C264.485 56.456 265.773 58.1733 266.595 60.376C267.416 62.5413 267.827 65.024 267.827 67.824C267.827 68.0853 267.659 68.4587 267.323 68.944C267.024 69.4293 266.669 69.8587 266.259 70.232C265.848 70.6053 265.531 70.792 265.307 70.792H249.851C250.037 73.2933 250.747 75.0853 251.979 76.168C253.211 77.2133 254.891 77.736 257.019 77.736C258.363 77.736 259.52 77.568 260.491 77.232C261.499 76.896 262.32 76.5787 262.955 76.28C263.627 75.944 264.075 75.776 264.299 75.776C264.635 75.776 265.008 76.0373 265.419 76.56C265.829 77.0453 266.165 77.5867 266.427 78.184C266.725 78.744 266.875 79.192 266.875 79.528C266.875 80.1253 266.539 80.6667 265.867 81.152C265.232 81.6 264.392 82.0107 263.347 82.384C262.301 82.72 261.2 82.9627 260.043 83.112C258.885 83.2987 257.803 83.392 256.795 83.392ZM249.851 65.752H260.827C260.827 63.6613 260.416 62.0187 259.595 60.824C258.811 59.592 257.56 58.976 255.843 58.976C254.237 58.976 252.893 59.4987 251.811 60.544C250.765 61.5893 250.112 63.3253 249.851 65.752ZM277.07 83.112C275.092 83.112 274.102 82.5707 274.102 81.488V63.12C274.102 61.3653 274.046 59.984 273.934 58.976C273.822 57.968 273.71 57.2027 273.598 56.68C273.486 56.1573 273.43 55.7653 273.43 55.504C273.43 55.2053 273.636 54.9627 274.046 54.776C274.457 54.552 274.961 54.384 275.558 54.272C276.156 54.1227 276.734 54.0293 277.294 53.992C277.854 53.9173 278.284 53.88 278.582 53.88C279.105 53.88 279.497 54.0853 279.758 54.496C280.057 54.9067 280.262 55.392 280.374 55.952C280.486 56.512 280.598 57.0347 280.71 57.52C281.42 56.3627 282.26 55.3733 283.23 54.552C284.238 53.7307 285.47 53.32 286.926 53.32C288.233 53.32 289.092 53.5627 289.502 54.048C289.95 54.5333 290.174 55.2053 290.174 56.064C290.174 56.4 290.1 56.904 289.95 57.576C289.838 58.2107 289.67 58.808 289.446 59.368C289.222 59.8907 288.942 60.152 288.606 60.152C288.233 60.152 287.86 60.0773 287.486 59.928C287.113 59.7413 286.572 59.648 285.862 59.648C285.041 59.648 284.294 59.8533 283.622 60.264C282.95 60.6747 282.39 61.1227 281.942 61.608C281.532 62.056 281.27 62.4107 281.158 62.672V81.488C281.158 82.5707 280.15 83.112 278.134 83.112H277.07Z" fill="white"/>
<path d="M117.112 37.072C115.84 37.072 115.204 36.724 115.204 36.028V21.808H114.268C113.644 21.808 113.332 21.292 113.332 20.26V19.72C113.332 18.688 113.644 18.172 114.268 18.172H115.204V15.22C115.204 14.188 115.324 13.324 115.564 12.628C115.828 11.908 116.188 11.332 116.644 10.9C117.1 10.468 117.64 10.156 118.264 9.964C118.888 9.772 119.548 9.676 120.244 9.676C120.604 9.676 121.036 9.712 121.54 9.784C122.068 9.832 122.524 9.964 122.908 10.18C123.316 10.396 123.52 10.744 123.52 11.224C123.52 11.32 123.484 11.56 123.412 11.944C123.34 12.304 123.22 12.652 123.052 12.988C122.908 13.324 122.728 13.492 122.512 13.492C122.392 13.492 122.224 13.468 122.008 13.42C121.816 13.372 121.564 13.348 121.252 13.348C120.94 13.348 120.664 13.408 120.424 13.528C120.208 13.624 120.04 13.816 119.92 14.104C119.8 14.368 119.74 14.764 119.74 15.292V18.172H122.008C122.632 18.172 122.944 18.688 122.944 19.72V20.26C122.944 21.292 122.632 21.808 122.008 21.808H119.74V36.028C119.74 36.724 119.104 37.072 117.832 37.072H117.112ZM134.003 37.252C131.195 37.252 129.047 36.424 127.559 34.768C126.095 33.112 125.363 30.724 125.363 27.604C125.363 24.46 126.095 22.06 127.559 20.404C129.047 18.748 131.195 17.92 134.003 17.92C136.787 17.92 138.899 18.748 140.339 20.404C141.803 22.06 142.535 24.46 142.535 27.604C142.535 30.724 141.815 33.112 140.375 34.768C138.935 36.424 136.811 37.252 134.003 37.252ZM133.967 33.616C135.311 33.616 136.295 33.112 136.919 32.104C137.567 31.096 137.891 29.584 137.891 27.568C137.891 25.576 137.567 24.076 136.919 23.068C136.295 22.06 135.311 21.556 133.967 21.556C132.599 21.556 131.591 22.06 130.943 23.068C130.319 24.052 130.007 25.564 130.007 27.604C130.007 29.596 130.319 31.096 130.943 32.104C131.591 33.112 132.599 33.616 133.967 33.616ZM148.703 37.072C147.431 37.072 146.795 36.724 146.795 36.028V24.22C146.795 23.092 146.759 22.204 146.687 21.556C146.615 20.908 146.543 20.416 146.471 20.08C146.399 19.744 146.363 19.492 146.363 19.324C146.363 19.132 146.495 18.976 146.759 18.856C147.023 18.712 147.347 18.604 147.731 18.532C148.115 18.436 148.487 18.376 148.847 18.352C149.207 18.304 149.483 18.28 149.675 18.28C150.011 18.28 150.263 18.412 150.431 18.676C150.623 18.94 150.755 19.252 150.827 19.612C150.899 19.972 150.971 20.308 151.043 20.62C151.499 19.876 152.039 19.24 152.663 18.712C153.311 18.184 154.103 17.92 155.039 17.92C155.879 17.92 156.431 18.076 156.695 18.388C156.983 18.7 157.127 19.132 157.127 19.684C157.127 19.9 157.079 20.224 156.983 20.656C156.911 21.064 156.803 21.448 156.659 21.808C156.515 22.144 156.335 22.312 156.119 22.312C155.879 22.312 155.639 22.264 155.399 22.168C155.159 22.048 154.811 21.988 154.355 21.988C153.827 21.988 153.347 22.12 152.915 22.384C152.483 22.648 152.123 22.936 151.835 23.248C151.571 23.536 151.403 23.764 151.331 23.932V36.028C151.331 36.724 150.683 37.072 149.387 37.072H148.703Z" fill="white"/>
<path d="M35.3866 59.1272C29.987 53.6564 29.987 44.7864 35.3866 39.3156V39.3156C40.7862 33.8448 49.5407 33.8448 54.9403 39.3156L74.3339 58.9649L54.7801 78.7765L35.3866 59.1272Z" fill="#971EE1"/>
<path d="M54.8158 39.2391C60.2154 33.7683 68.9699 33.7683 74.3695 39.2391V39.2391C79.7691 44.71 79.7691 53.5799 74.3695 59.0508L54.8444 78.8333L35.2907 59.0217L54.8158 39.2391Z" fill="#971EE1"/>
</svg>
